<?xml version="1.0" encoding="utf-8"?>
<!-- Generator: Adobe Illustrator 24.0.0, SVG Export Plug-In . SVG Version: 6.00 Build 0)  -->
<svg version="1.1" id="Layer_1" xmlns="http://www.w3.org/2000/svg" xmlns:xlink="http://www.w3.org/1999/xlink" x="0px" y="0px"
	 viewBox="0 0 300 300" style="enable-background:new 0 0 300 300;" xml:space="preserve">
<style type="text/css">
	.st0{fill:#FFFFFF;}
</style>
<g>
	<path d="M228,85h49.4C266,62.7,248.9,43.8,228,30.1V85z"/>
	<path d="M293,150c0-18.7-3.6-36.6-10.2-53H228v104h55.6C289.7,185.2,293,168,293,150z"/>
	<path d="M206,18.4C188.8,11.1,169.9,7,150,7C71,7,7,71,7,150s64,143,143,143c19.9,0,38.8-4.1,56-11.4V18.4z"/>
	<path d="M228,213v56.9c21.5-14,39-33.7,50.4-56.9H228z"/>
</g>
<circle class="st0" cx="125" cy="214" r="73"/>
<polygon class="st0" points="125,9 52.9,133.8 197,133.8 "/>
</svg>
